<svg version="1.1" xmlns="http://www.w3.org/2000/svg" xmlns:xlink="http://www.w3.org/1999/xlink" width="330" height="300"><defs><clipPath id="UTMDeTPySlIy"><path fill="none" stroke="none" d="M 67.5 28.5 L 300.5 28.5 L 300.5 247.5 L 67.5 247.5 L 67.5 28.5"/></clipPath><clipPath id="qoCAwsZLIbkr"><path fill="none" stroke="none" d="M 67.5 28.5 L 300.5 28.5 L 300.5 247.5 L 67.5 247.5 L 67.5 28.5"/></clipPath><clipPath id="gEdPWJrTRwNQ"><path fill="none" stroke="none" d="M 67.5 28.5 L 300.5 28.5 L 300.5 247.5 L 67.5 247.5 L 67.5 28.5"/></clipPath><clipPath id="VhyxJSAczwxu"><path fill="none" stroke="none" d="M 67.5 28.5 L 300.5 28.5 L 300.5 247.5 L 67.5 247.5 L 67.5 28.5"/></clipPath><clipPath id="gbfTrVrbqeMJ"><path fill="none" stroke="none" d="M 67.5 28.5 L 300.5 28.5 L 300.5 247.5 L 67.5 247.5 L 67.5 28.5"/></clipPath><clipPath id="GgCydizcRqEH"><path fill="none" stroke="none" d="M 67.5 28.5 L 300.5 28.5 L 300.5 247.5 L 67.5 247.5 L 67.5 28.5"/></clipPath><clipPath id="SiTeGLBLIlxF"><path fill="none" stroke="none" d="M 67.5 28.5 L 300.5 28.5 L 300.5 247.5 L 67.5 247.5 L 67.5 28.5"/></clipPath><clipPath id="REaymATbwKiX"><path fill="none" stroke="none" d="M 67.5 28.5 L 300.5 28.5 L 300.5 247.5 L 67.5 247.5 L 67.5 28.5"/></clipPath></defs><path fill="rgb(255,255,255)" stroke="none" paint-order="stroke" d="M 0.5 0.5 L 330.5 0.5 L 330.5 300.5 L 0.5 300.5 L 0.5 0.5" fill-opacity="1"/><rect fill="#FFFFFF" stroke="none" x="67" y="28" width="233" height="219" transform="matrix(1, 0, 0, 1, 0.5, 0.5)"/><path fill="rgb(255,255,255)" stroke="none" paint-order="stroke" d="M 67.5 28.5 L 300.5 28.5 L 300.5 247.5 L 67.5 247.5 L 67.5 28.5" fill-opacity="1"/><path fill="none" stroke="rgb(229,229,229)" paint-order="fill" d="M 67.5 28.5 L 300.5 28.5 L 300.5 247.5 L 67.5 247.5 L 67.5 28.5" stroke-opacity="1" stroke-linejoin="bevel" stroke-miterlimit="10" stroke-dasharray=""/><path fill="none" stroke="none"/><path fill="rgb(255,255,255)" stroke="rgb(255,255,255)" paint-order="fill" d="M 78.09091186523438 138 L 184 138 L 184 237.5454559326172 L 78.09091186523438 237.5454559326172 L 78.09091186523438 138" fill-opacity="0.6" clip-path="url(#gEdPWJrTRwNQ)" stroke-opacity="0.6" stroke-linejoin="bevel" stroke-miterlimit="10" stroke-width="1.5" stroke-dasharray=""/><path fill="rgb(0,0,0)" stroke="rgb(255,255,255)" paint-order="fill" d="M 184 138 L 289.9090881347656 138 L 289.9090881347656 237.5454559326172 L 184 237.5454559326172 L 184 138" fill-opacity="0.6" clip-path="url(#gEdPWJrTRwNQ)" stroke-opacity="0.6" stroke-linejoin="bevel" stroke-miterlimit="10" stroke-width="1.5" stroke-dasharray=""/><path fill="rgb(0,0,0)" stroke="rgb(255,255,255)" paint-order="fill" d="M 78.09091186523438 38.45454406738281 L 184 38.45454406738281 L 184 138 L 78.09091186523438 138 L 78.09091186523438 38.45454406738281" fill-opacity="0.6" clip-path="url(#gEdPWJrTRwNQ)" stroke-opacity="0.6" stroke-linejoin="bevel" stroke-miterlimit="10" stroke-width="1.5" stroke-dasharray=""/><path fill="rgb(209,209,209)" stroke="rgb(255,255,255)" paint-order="fill" d="M 184 38.45454406738281 L 289.9090881347656 38.45454406738281 L 289.9090881347656 138 L 184 138 L 184 38.45454406738281" fill-opacity="0.6" clip-path="url(#gEdPWJrTRwNQ)" stroke-opacity="0.6" stroke-linejoin="bevel" stroke-miterlimit="10" stroke-width="1.5" stroke-dasharray=""/><text fill="rgb(68,68,68)" stroke="none" font-family="helvetica" font-size="11px" font-style="normal" font-weight="normal" text-decoration="normal" x="115.98712253570557" y="269" text-anchor="start" dominant-baseline="alphabetic" transform="matrix(1, 0, 0, 1, 0.5, 0.5)" fill-opacity="1">False</text><text fill="rgb(68,68,68)" stroke="none" font-family="helvetica" font-size="11px" font-style="normal" font-weight="normal" text-decoration="normal" x="223.36287784576416" y="269" text-anchor="start" dominant-baseline="alphabetic" transform="matrix(1, 0, 0, 1, 0.5, 0.5)" fill-opacity="1">True</text><text fill="rgb(68,68,68)" stroke="none" font-family="helvetica" font-size="13px" font-style="italic" font-weight="normal" text-decoration="normal" x="148.3666648864746" y="294" text-anchor="start" dominant-baseline="alphabetic" transform="matrix(1, 0, 0, 1, 0.5, 0.5)" fill-opacity="1">True Class</text><text fill="rgb(68,68,68)" stroke="none" font-family="helvetica" font-size="11px" font-style="normal" font-weight="normal" text-decoration="normal" x="26.883333206176758" y="190.77272033691406" text-anchor="start" dominant-baseline="alphabetic" transform="matrix(1, 0, 0, 1, 0.5, 0.5)" fill-opacity="1">False</text><text fill="rgb(68,68,68)" stroke="none" font-family="helvetica" font-size="11px" font-style="normal" font-weight="normal" text-decoration="normal" x="29.816667556762695" y="91.2272720336914" text-anchor="start" dominant-baseline="alphabetic" transform="matrix(1, 0, 0, 1, 0.5, 0.5)" fill-opacity="1">True</text><text fill="rgb(68,68,68)" stroke="none" font-family="helvetica" font-size="13px" font-style="italic" font-weight="normal" text-decoration="normal" x="-32.60000038146973" y="134.5" text-anchor="start" dominant-baseline="alphabetic" transform="matrix(6.123233995736766e-17, -1, 1, 6.123233995736766e-17, -118.11666679382324, 156.88333320617676)" fill-opacity="1">Predicted Class</text><path fill="none" stroke="none"/><text fill="rgb(0,0,0)" stroke="none" font-family="helvetica" font-size="10px" font-style="normal" font-weight="bold" text-decoration="normal" x="0" y="0" text-anchor="start" dominant-baseline="central" transform="matrix(1, 0, 0, 1, 125.54545454545456, 187.77272727272728)" fill-opacity="1">12</text><path fill="none" stroke="none"/><text fill="rgb(255,255,255)" stroke="none" font-family="helvetica" font-size="10px" font-style="normal" font-weight="bold" text-decoration="normal" x="0" y="0" text-anchor="start" dominant-baseline="central" transform="matrix(1, 0, 0, 1, 126.54545454545456, 88.22727272727275)" fill-opacity="1">1</text><path fill="none" stroke="none"/><text fill="rgb(255,255,255)" stroke="none" font-family="helvetica" font-size="10px" font-style="normal" font-weight="bold" text-decoration="normal" x="0" y="0" text-anchor="start" dominant-baseline="central" transform="matrix(1, 0, 0, 1, 232.45454545454547, 187.77272727272728)" fill-opacity="1">1</text><path fill="none" stroke="none"/><text fill="rgb(0,0,0)" stroke="none" font-family="helvetica" font-size="10px" font-style="normal" font-weight="bold" text-decoration="normal" x="0" y="0" text-anchor="start" dominant-baseline="central" transform="matrix(1, 0, 0, 1, 231.45454545454547, 88.22727272727275)" fill-opacity="1">10</text><path fill="none" stroke="none"/><text fill="rgb(68,68,68)" stroke="none" font-family="helvetica" font-size="13px" font-style="normal" font-weight="bold" text-decoration="normal" x="0" y="0" text-anchor="middle" dominant-baseline="text-after-edge" transform="matrix(1, 0, 0, 1, 184, 23.5)" fill-opacity="1">AutoEncoder: Confusion Matrix</text></svg>