<svg version="1.1" xmlns="http://www.w3.org/2000/svg" xmlns:xlink="http://www.w3.org/1999/xlink" width="600" height="400"><defs><clipPath id="sxffSyOLRXNL"><path fill="none" stroke="none" d="M 52.5 33.5 L 570.5 33.5 L 570.5 354.5 L 52.5 354.5 L 52.5 33.5"/></clipPath><clipPath id="IPZCGPyzqoll"><path fill="none" stroke="none" d="M 52.5 33.5 L 570.5 33.5 L 570.5 354.5 L 52.5 354.5 L 52.5 33.5"/></clipPath><clipPath id="DRIRziIcztwS"><path fill="none" stroke="none" d="M 52.5 33.5 L 570.5 33.5 L 570.5 354.5 L 52.5 354.5 L 52.5 33.5"/></clipPath><clipPath id="xhixhJRZeboh"><path fill="none" stroke="none" d="M 52.5 33.5 L 570.5 33.5 L 570.5 354.5 L 52.5 354.5 L 52.5 33.5"/></clipPath><clipPath id="muhCXwPHyXdZ"><path fill="none" stroke="none" d="M 52.5 33.5 L 570.5 33.5 L 570.5 354.5 L 52.5 354.5 L 52.5 33.5"/></clipPath><clipPath id="zVwBwyqvmQkE"><path fill="none" stroke="none" d="M 52.5 33.5 L 570.5 33.5 L 570.5 354.5 L 52.5 354.5 L 52.5 33.5"/></clipPath></defs><path fill="rgb(255,255,255)" stroke="none" paint-order="stroke" d="M 0.5 0.5 L 600.5 0.5 L 600.5 400.5 L 0.5 400.5 L 0.5 0.5" fill-opacity="1"/><rect fill="#FFFFFF" stroke="none" x="52" y="33" width="518" height="321" transform="matrix(1, 0, 0, 1, 0.5, 0.5)"/><path fill="rgb(255,255,255)" stroke="none" paint-order="stroke" d="M 52.5 33.5 L 570.5 33.5 L 570.5 354.5 L 52.5 354.5 L 52.5 33.5" fill-opacity="1"/><path fill="none" stroke="rgb(229,229,229)" paint-order="fill" d="M 52.5 33.5 L 570.5 33.5 L 570.5 354.5 L 52.5 354.5 L 52.5 33.5" stroke-opacity="1" stroke-linejoin="bevel" stroke-miterlimit="10" stroke-dasharray=""/><path fill="none" stroke="rgb(229,229,229)" paint-order="fill" d="M 52.5 288.5 L 570.5 288.5 M 52.5 214.5 L 570.5 214.5 M 52.5 141.5 L 570.5 141.5 M 52.5 67.5 L 570.5 67.5" stroke-opacity="1" stroke-linejoin="bevel" stroke-miterlimit="10" stroke-dasharray="" clip-path="url(#IPZCGPyzqoll)"/><path fill="none" stroke="none"/><path fill="none" stroke="rgb(0,0,0)" paint-order="fill" d="M 76.04545593261719 48.09090805053711 L 92.28369903564453 200.96913146972656 L 108.52194213867188 214.4959259033203 L 124.76018524169922 254.93296813964844 L 140.99842834472656 264.4977111816406 L 157.23667907714844 266.0427551269531 L 173.47491455078125 272.89385986328125 L 189.71316528320312 278.16168212890625 L 205.951416015625 279.55987548828125 L 222.1896514892578 280.7552795410156 L 238.4279022216797 281.7447204589844 L 254.6661376953125 282.6373596191406 L 270.9043884277344 283.3163146972656 L 287.14263916015625 283.9377136230469 L 303.3808898925781 284.4532470703125 L 319.6191101074219 285.05859375 L 335.85736083984375 297.6607971191406 L 352.0956115722656 323.1475830078125 L 368.3338623046875 326.6435546875 L 384.5721130371094 328.4158020019531 L 400.8103332519531 331.3022155761719 L 417.048583984375 333.2252502441406 L 433.2868347167969 334.4738464355469 L 449.52508544921875 335.649169921875 L 465.7633361816406 336.6676025390625 L 482.0015563964844 337.48724365234375 L 498.23980712890625 338.0946044921875 L 514.47802734375 338.81182861328125 L 530.71630859375 339.08203125 L 546.9545288085938 339.9090881347656" stroke-opacity="1" stroke-linejoin="bevel" stroke-miterlimit="10" stroke-dasharray="2,4" clip-path="url(#DRIRziIcztwS)"/><path fill="none" stroke="none"/><path fill="none" stroke="rgb(255,127,80)" paint-order="fill" d="M 76.04545593261719 262.6197509765625 L 92.28369903564453 261.1405334472656 L 108.52194213867188 276.010986328125 L 124.76018524169922 270.3908386230469 L 140.99842834472656 269.3810119628906 L 157.23667907714844 275.8773193359375 L 173.47491455078125 290.0732727050781 L 189.71316528320312 296.0281066894531 L 205.951416015625 295.2415466308594 L 222.1896514892578 298.9298095703125 L 238.4279022216797 296.2266540527344 L 254.6661376953125 294.3647766113281 L 270.9043884277344 298.3785095214844 L 287.14263916015625 296.2637023925781 L 303.3808898925781 293.7515563964844 L 319.6191101074219 295.327880859375 L 335.85736083984375 314.4085693359375 L 352.0956115722656 319.3582458496094 L 368.3338623046875 321.6927490234375 L 384.5721130371094 324.71734619140625 L 400.8103332519531 319.80029296875 L 417.048583984375 322.60540771484375 L 433.2868347167969 321.4541320800781 L 449.52508544921875 319.68115234375 L 465.7633361816406 320.7038269042969 L 482.0015563964844 321.6529846191406 L 498.23980712890625 322.97650146484375 L 514.47802734375 318.1715087890625 L 530.71630859375 321.4709167480469 L 546.9545288085938 316.6326599121094" stroke-opacity="1" stroke-linejoin="bevel" stroke-miterlimit="10" stroke-width="1.5" stroke-dasharray="" clip-path="url(#xhixhJRZeboh)"/><path fill="none" stroke="rgb(0,0,0)" paint-order="fill" d="M 52.5 354.5 L 570.5 354.5" stroke-opacity="1" stroke-linejoin="bevel" stroke-miterlimit="10" stroke-dasharray=""/><path fill="none" stroke="rgb(0,0,0)" paint-order="fill" d="M 76.5 360.5 L 76.5 352.5 M 157.5 360.5 L 157.5 352.5 M 238.5 360.5 L 238.5 352.5 M 319.5 360.5 L 319.5 352.5 M 400.5 360.5 L 400.5 352.5 M 482.5 360.5 L 482.5 352.5 M 563.5 360.5 L 563.5 352.5" stroke-opacity="1" stroke-linejoin="bevel" stroke-miterlimit="10" stroke-dasharray=""/><path fill="none" stroke="rgb(0,0,0)" paint-order="fill" d="M 59.5 358.5 L 59.5 354.5 M 76.5 358.5 L 76.5 354.5 M 92.5 358.5 L 92.5 354.5 M 108.5 358.5 L 108.5 354.5 M 124.5 358.5 L 124.5 354.5 M 140.5 358.5 L 140.5 354.5 M 157.5 358.5 L 157.5 354.5 M 173.5 358.5 L 173.5 354.5 M 189.5 358.5 L 189.5 354.5 M 205.5 358.5 L 205.5 354.5 M 222.5 358.5 L 222.5 354.5 M 238.5 358.5 L 238.5 354.5 M 254.5 358.5 L 254.5 354.5 M 270.5 358.5 L 270.5 354.5 M 287.5 358.5 L 287.5 354.5 M 303.5 358.5 L 303.5 354.5 M 319.5 358.5 L 319.5 354.5 M 335.5 358.5 L 335.5 354.5 M 352.5 358.5 L 352.5 354.5 M 368.5 358.5 L 368.5 354.5 M 384.5 358.5 L 384.5 354.5 M 400.5 358.5 L 400.5 354.5 M 417.5 358.5 L 417.5 354.5 M 433.5 358.5 L 433.5 354.5 M 449.5 358.5 L 449.5 354.5 M 465.5 358.5 L 465.5 354.5 M 482.5 358.5 L 482.5 354.5 M 498.5 358.5 L 498.5 354.5 M 514.5 358.5 L 514.5 354.5 M 530.5 358.5 L 530.5 354.5 M 546.5 358.5 L 546.5 354.5 M 563.5 358.5 L 563.5 354.5" stroke-opacity="1" stroke-linejoin="bevel" stroke-miterlimit="10" stroke-dasharray=""/><text fill="rgb(68,68,68)" stroke="none" font-family="helvetica" font-size="11px" font-style="normal" font-weight="normal" text-decoration="normal" x="72.04545593261719" y="373" text-anchor="start" dominant-baseline="alphabetic" transform="matrix(1, 0, 0, 1, 0.5, 0.5)" fill-opacity="1">0</text><text fill="rgb(68,68,68)" stroke="none" font-family="helvetica" font-size="11px" font-style="normal" font-weight="normal" text-decoration="normal" x="153.23667907714844" y="373" text-anchor="start" dominant-baseline="alphabetic" transform="matrix(1, 0, 0, 1, 0.5, 0.5)" fill-opacity="1">5</text><text fill="rgb(68,68,68)" stroke="none" font-family="helvetica" font-size="11px" font-style="normal" font-weight="normal" text-decoration="normal" x="230.9279022216797" y="373" text-anchor="start" dominant-baseline="alphabetic" transform="matrix(1, 0, 0, 1, 0.5, 0.5)" fill-opacity="1">10</text><text fill="rgb(68,68,68)" stroke="none" font-family="helvetica" font-size="11px" font-style="normal" font-weight="normal" text-decoration="normal" x="312.1191101074219" y="373" text-anchor="start" dominant-baseline="alphabetic" transform="matrix(1, 0, 0, 1, 0.5, 0.5)" fill-opacity="1">15</text><text fill="rgb(68,68,68)" stroke="none" font-family="helvetica" font-size="11px" font-style="normal" font-weight="normal" text-decoration="normal" x="393.3103332519531" y="373" text-anchor="start" dominant-baseline="alphabetic" transform="matrix(1, 0, 0, 1, 0.5, 0.5)" fill-opacity="1">20</text><text fill="rgb(68,68,68)" stroke="none" font-family="helvetica" font-size="11px" font-style="normal" font-weight="normal" text-decoration="normal" x="474.5015563964844" y="373" text-anchor="start" dominant-baseline="alphabetic" transform="matrix(1, 0, 0, 1, 0.5, 0.5)" fill-opacity="1">25</text><text fill="rgb(68,68,68)" stroke="none" font-family="helvetica" font-size="11px" font-style="normal" font-weight="normal" text-decoration="normal" x="555.6928100585938" y="373" text-anchor="start" dominant-baseline="alphabetic" transform="matrix(1, 0, 0, 1, 0.5, 0.5)" fill-opacity="1">30</text><text fill="rgb(68,68,68)" stroke="none" font-family="helvetica" font-size="13px" font-style="italic" font-weight="normal" text-decoration="normal" x="279.50833320617676" y="394" text-anchor="start" dominant-baseline="alphabetic" transform="matrix(1, 0, 0, 1, 0.5, 0.5)" fill-opacity="1"># Epochs</text><path fill="none" stroke="rgb(0,0,0)" paint-order="fill" d="M 52.5 354.5 L 52.5 33.5" stroke-opacity="1" stroke-linejoin="bevel" stroke-miterlimit="10" stroke-dasharray=""/><path fill="none" stroke="rgb(0,0,0)" paint-order="fill" d="M 46.5 288.5 L 54.5 288.5 M 46.5 214.5 L 54.5 214.5 M 46.5 141.5 L 54.5 141.5 M 46.5 67.5 L 54.5 67.5" stroke-opacity="1" stroke-linejoin="bevel" stroke-miterlimit="10" stroke-dasharray=""/><path fill="none" stroke="rgb(0,0,0)" paint-order="fill" d="M 48.5 303.5 L 52.5 303.5 M 48.5 317.5 L 52.5 317.5 M 48.5 332.5 L 52.5 332.5 M 48.5 347.5 L 52.5 347.5 M 48.5 288.5 L 52.5 288.5 M 48.5 273.5 L 52.5 273.5 M 48.5 259.5 L 52.5 259.5 M 48.5 244.5 L 52.5 244.5 M 48.5 229.5 L 52.5 229.5 M 48.5 214.5 L 52.5 214.5 M 48.5 200.5 L 52.5 200.5 M 48.5 185.5 L 52.5 185.5 M 48.5 170.5 L 52.5 170.5 M 48.5 155.5 L 52.5 155.5 M 48.5 141.5 L 52.5 141.5 M 48.5 126.5 L 52.5 126.5 M 48.5 111.5 L 52.5 111.5 M 48.5 97.5 L 52.5 97.5 M 48.5 82.5 L 52.5 82.5 M 48.5 67.5 L 52.5 67.5 M 48.5 52.5 L 52.5 52.5 M 48.5 38.5 L 52.5 38.5" stroke-opacity="1" stroke-linejoin="bevel" stroke-miterlimit="10" stroke-dasharray=""/><text fill="rgb(68,68,68)" stroke="none" font-family="helvetica" font-size="11px" font-style="normal" font-weight="normal" text-decoration="normal" x="34" y="292.003662109375" text-anchor="start" dominant-baseline="alphabetic" transform="matrix(1, 0, 0, 1, 0.5, 0.5)" fill-opacity="1">6</text><text fill="rgb(68,68,68)" stroke="none" font-family="helvetica" font-size="11px" font-style="normal" font-weight="normal" text-decoration="normal" x="34" y="218.35452270507812" text-anchor="start" dominant-baseline="alphabetic" transform="matrix(1, 0, 0, 1, 0.5, 0.5)" fill-opacity="1">8</text><text fill="rgb(68,68,68)" stroke="none" font-family="helvetica" font-size="11px" font-style="normal" font-weight="normal" text-decoration="normal" x="27" y="144.70538330078125" text-anchor="start" dominant-baseline="alphabetic" transform="matrix(1, 0, 0, 1, 0.5, 0.5)" fill-opacity="1">10</text><text fill="rgb(68,68,68)" stroke="none" font-family="helvetica" font-size="11px" font-style="normal" font-weight="normal" text-decoration="normal" x="27" y="71.05625915527344" text-anchor="start" dominant-baseline="alphabetic" transform="matrix(1, 0, 0, 1, 0.5, 0.5)" fill-opacity="1">12</text><text fill="rgb(68,68,68)" stroke="none" font-family="helvetica" font-size="13px" font-style="italic" font-weight="normal" text-decoration="normal" x="4.100000381469727" y="190.5" text-anchor="start" dominant-baseline="alphabetic" transform="matrix(6.123233995736766e-17, -1, 1, 6.123233995736766e-17, -174, 213)" fill-opacity="1">Loss</text><path fill="rgb(255,255,255)" stroke="rgb(229,229,229)" paint-order="fill" d="M 433.4833297729492 43.5 L 560.5 43.5 L 560.5 106.5 L 433.4833297729492 106.5 L 433.4833297729492 43.5" fill-opacity="0.9490196078431372" clip-path="url(#muhCXwPHyXdZ)" stroke-opacity="0.5019607843137255" stroke-linejoin="bevel" stroke-miterlimit="10" stroke-dasharray=""/><text fill="rgb(68,68,68)" stroke="none" font-family="helvetica" font-size="8pt" font-style="normal" font-weight="normal" text-decoration="normal" x="467.9833297729492" y="63" text-anchor="start" dominant-baseline="central" transform="matrix(1, 0, 0, 1, 0.5, 0.5)" fill-opacity="1">Training Loss</text><path fill="none" stroke="rgb(0,0,0)" paint-order="fill" d="M 443.4833297729492 63.5 L 463.4833297729492 63.5" stroke-opacity="1" stroke-linejoin="bevel" stroke-miterlimit="10" stroke-dasharray="2,4" clip-path="url(#muhCXwPHyXdZ)"/><text fill="rgb(68,68,68)" stroke="none" font-family="helvetica" font-size="8pt" font-style="normal" font-weight="normal" text-decoration="normal" x="467.9833297729492" y="86" text-anchor="start" dominant-baseline="central" transform="matrix(1, 0, 0, 1, 0.5, 0.5)" fill-opacity="1">Validation Loss</text><path fill="none" stroke="rgb(255,127,80)" paint-order="fill" d="M 443.4833297729492 86.5 L 463.4833297729492 86.5" stroke-opacity="1" stroke-linejoin="bevel" stroke-miterlimit="10" stroke-width="1.5" stroke-dasharray="" clip-path="url(#muhCXwPHyXdZ)"/><path fill="none" stroke="none"/><text fill="rgb(68,68,68)" stroke="none" font-family="helvetica" font-size="12pt" font-style="normal" font-weight="bold" text-decoration="normal" x="0" y="0" text-anchor="middle" dominant-baseline="text-after-edge" transform="matrix(1, 0, 0, 1, 311.5, 28.5)" fill-opacity="1">AutoEncoder: Loss per Epoch</text></svg>