<svg version="1.1" xmlns="http://www.w3.org/2000/svg" xmlns:xlink="http://www.w3.org/1999/xlink" width="600" height="400"><defs><clipPath id="LoUXFZrcuUhr"><path fill="none" stroke="none" d="M 66.5 33.5 L 570.5 33.5 L 570.5 354.5 L 66.5 354.5 L 66.5 33.5"/></clipPath><clipPath id="LZyTZveZmyNL"><path fill="none" stroke="none" d="M 66.5 33.5 L 570.5 33.5 L 570.5 354.5 L 66.5 354.5 L 66.5 33.5"/></clipPath><clipPath id="HmiUWfiRtDNI"><path fill="none" stroke="none" d="M 66.5 33.5 L 570.5 33.5 L 570.5 354.5 L 66.5 354.5 L 66.5 33.5"/></clipPath><clipPath id="PtuslCfaSckP"><path fill="none" stroke="none" d="M 66.5 33.5 L 570.5 33.5 L 570.5 354.5 L 66.5 354.5 L 66.5 33.5"/></clipPath><clipPath id="nGPuqyRkDtAL"><path fill="none" stroke="none" d="M 66.5 33.5 L 570.5 33.5 L 570.5 354.5 L 66.5 354.5 L 66.5 33.5"/></clipPath><clipPath id="CMtQGcuvbCUw"><path fill="none" stroke="none" d="M 66.5 33.5 L 570.5 33.5 L 570.5 354.5 L 66.5 354.5 L 66.5 33.5"/></clipPath></defs><path fill="rgb(255,255,255)" stroke="none" paint-order="stroke" d="M 0.5 0.5 L 600.5 0.5 L 600.5 400.5 L 0.5 400.5 L 0.5 0.5" fill-opacity="1"/><rect fill="#FFFFFF" stroke="none" x="66" y="33" width="504" height="321" transform="matrix(1, 0, 0, 1, 0.5, 0.5)"/><path fill="rgb(255,255,255)" stroke="none" paint-order="stroke" d="M 66.5 33.5 L 570.5 33.5 L 570.5 354.5 L 66.5 354.5 L 66.5 33.5" fill-opacity="1"/><path fill="none" stroke="rgb(229,229,229)" paint-order="fill" d="M 66.5 33.5 L 570.5 33.5 L 570.5 354.5 L 66.5 354.5 L 66.5 33.5" stroke-opacity="1" stroke-linejoin="bevel" stroke-miterlimit="10" stroke-dasharray=""/><path fill="none" stroke="rgb(229,229,229)" paint-order="fill" d="M 131.5 354.5 L 131.5 33.5 M 220.5 354.5 L 220.5 33.5 M 310.5 354.5 L 310.5 33.5 M 399.5 354.5 L 399.5 33.5 M 489.5 354.5 L 489.5 33.5" stroke-opacity="1" stroke-linejoin="bevel" stroke-miterlimit="10" stroke-dasharray="" clip-path="url(#LoUXFZrcuUhr)"/><path fill="none" stroke="rgb(229,229,229)" paint-order="fill" d="M 66.5 270.5 L 570.5 270.5 M 66.5 186.5 L 570.5 186.5 M 66.5 102.5 L 570.5 102.5" stroke-opacity="1" stroke-linejoin="bevel" stroke-miterlimit="10" stroke-dasharray="" clip-path="url(#LZyTZveZmyNL)"/><path fill="none" stroke="none"/><path fill="rgb(220,20,60)" stroke="none" paint-order="stroke" d="M 89.40908813476562 225.1593475341797 L 97.43775939941406 225.1593475341797 L 97.43775939941406 354.5 L 89.40908813476562 354.5 L 89.40908813476562 225.1593475341797" fill-opacity="0.5019607843137255" clip-path="url(#HmiUWfiRtDNI)"/><path fill="rgb(220,20,60)" stroke="none" paint-order="stroke" d="M 97.43775939941406 95.81867980957031 L 105.4664306640625 95.81867980957031 L 105.4664306640625 354.5 L 97.43775939941406 354.5 L 97.43775939941406 95.81867980957031" fill-opacity="0.5764705882352941" clip-path="url(#HmiUWfiRtDNI)"/><path fill="rgb(220,20,60)" stroke="none" paint-order="stroke" d="M 105.4664306640625 95.81867980957031 L 113.4950942993164 95.81867980957031 L 113.4950942993164 354.5 L 105.4664306640625 354.5 L 105.4664306640625 95.81867980957031" fill-opacity="0.5764705882352941" clip-path="url(#HmiUWfiRtDNI)"/><path fill="rgb(220,20,60)" stroke="none" paint-order="stroke" d="M 113.4950942993164 354.5 L 121.52376556396484 354.5 L 121.52376556396484 354.5 L 113.4950942993164 354.5 L 113.4950942993164 354.5" fill-opacity="0.4235294117647059" clip-path="url(#HmiUWfiRtDNI)"/><path fill="rgb(220,20,60)" stroke="none" paint-order="stroke" d="M 121.52376556396484 95.81867980957031 L 129.55242919921875 95.81867980957031 L 129.55242919921875 354.5 L 121.52376556396484 354.5 L 121.52376556396484 95.81867980957031" fill-opacity="0.5764705882352941" clip-path="url(#HmiUWfiRtDNI)"/><path fill="rgb(220,20,60)" stroke="none" paint-order="stroke" d="M 129.55242919921875 354.5 L 137.5811004638672 354.5 L 137.5811004638672 354.5 L 129.55242919921875 354.5 L 129.55242919921875 354.5" fill-opacity="0.4235294117647059" clip-path="url(#HmiUWfiRtDNI)"/><path fill="rgb(220,20,60)" stroke="none" paint-order="stroke" d="M 137.5811004638672 225.1593475341797 L 145.60977172851562 225.1593475341797 L 145.60977172851562 354.5 L 137.5811004638672 354.5 L 137.5811004638672 225.1593475341797" fill-opacity="0.5019607843137255" clip-path="url(#HmiUWfiRtDNI)"/><path fill="rgb(220,20,60)" stroke="none" paint-order="stroke" d="M 145.60977172851562 225.1593475341797 L 153.63844299316406 225.1593475341797 L 153.63844299316406 354.5 L 145.60977172851562 354.5 L 145.60977172851562 225.1593475341797" fill-opacity="0.5019607843137255" clip-path="url(#HmiUWfiRtDNI)"/><path fill="rgb(220,20,60)" stroke="none" paint-order="stroke" d="M 153.63844299316406 354.5 L 161.66709899902344 354.5 L 161.66709899902344 354.5 L 153.63844299316406 354.5 L 153.63844299316406 354.5" fill-opacity="0.4235294117647059" clip-path="url(#HmiUWfiRtDNI)"/><path fill="rgb(220,20,60)" stroke="none" paint-order="stroke" d="M 161.66709899902344 225.1593475341797 L 169.69577026367188 225.1593475341797 L 169.69577026367188 354.5 L 161.66709899902344 354.5 L 161.66709899902344 225.1593475341797" fill-opacity="0.5019607843137255" clip-path="url(#HmiUWfiRtDNI)"/><path fill="rgb(220,20,60)" stroke="none" paint-order="stroke" d="M 169.69577026367188 354.5 L 177.7244415283203 354.5 L 177.7244415283203 354.5 L 169.69577026367188 354.5 L 169.69577026367188 354.5" fill-opacity="0.4235294117647059" clip-path="url(#HmiUWfiRtDNI)"/><path fill="rgb(220,20,60)" stroke="none" paint-order="stroke" d="M 177.7244415283203 354.5 L 185.75311279296875 354.5 L 185.75311279296875 354.5 L 177.7244415283203 354.5 L 177.7244415283203 354.5" fill-opacity="0.4235294117647059" clip-path="url(#HmiUWfiRtDNI)"/><path fill="rgb(220,20,60)" stroke="none" paint-order="stroke" d="M 185.75311279296875 354.5 L 193.7817840576172 354.5 L 193.7817840576172 354.5 L 185.75311279296875 354.5 L 185.75311279296875 354.5" fill-opacity="0.4235294117647059" clip-path="url(#HmiUWfiRtDNI)"/><path fill="rgb(220,20,60)" stroke="none" paint-order="stroke" d="M 193.7817840576172 95.81867980957031 L 201.81044006347656 95.81867980957031 L 201.81044006347656 354.5 L 193.7817840576172 354.5 L 193.7817840576172 95.81867980957031" fill-opacity="0.5764705882352941" clip-path="url(#HmiUWfiRtDNI)"/><path fill="rgb(220,20,60)" stroke="none" paint-order="stroke" d="M 201.81044006347656 354.5 L 209.839111328125 354.5 L 209.839111328125 354.5 L 201.81044006347656 354.5 L 201.81044006347656 354.5" fill-opacity="0.4235294117647059" clip-path="url(#HmiUWfiRtDNI)"/><path fill="rgb(220,20,60)" stroke="none" paint-order="stroke" d="M 209.839111328125 354.5 L 217.86778259277344 354.5 L 217.86778259277344 354.5 L 209.839111328125 354.5 L 209.839111328125 354.5" fill-opacity="0.4235294117647059" clip-path="url(#HmiUWfiRtDNI)"/><path fill="rgb(220,20,60)" stroke="none" paint-order="stroke" d="M 217.86778259277344 354.5 L 225.89645385742188 354.5 L 225.89645385742188 354.5 L 217.86778259277344 354.5 L 217.86778259277344 354.5" fill-opacity="0.4235294117647059" clip-path="url(#HmiUWfiRtDNI)"/><path fill="rgb(220,20,60)" stroke="none" paint-order="stroke" d="M 225.89645385742188 354.5 L 233.9251251220703 354.5 L 233.9251251220703 354.5 L 225.89645385742188 354.5 L 225.89645385742188 354.5" fill-opacity="0.4235294117647059" clip-path="url(#HmiUWfiRtDNI)"/><path fill="rgb(220,20,60)" stroke="none" paint-order="stroke" d="M 233.9251251220703 354.5 L 241.9537811279297 354.5 L 241.9537811279297 354.5 L 233.9251251220703 354.5 L 233.9251251220703 354.5" fill-opacity="0.4235294117647059" clip-path="url(#HmiUWfiRtDNI)"/><path fill="rgb(220,20,60)" stroke="none" paint-order="stroke" d="M 241.9537811279297 225.1593475341797 L 249.98245239257812 225.1593475341797 L 249.98245239257812 354.5 L 241.9537811279297 354.5 L 241.9537811279297 225.1593475341797" fill-opacity="0.5019607843137255" clip-path="url(#HmiUWfiRtDNI)"/><path fill="none" stroke="none"/><path fill="rgb(75,0,130)" stroke="none" paint-order="stroke" d="M 172.37315368652344 201.64285278320312 L 184.88040161132812 201.64285278320312 L 184.88040161132812 354.5 L 172.37315368652344 354.5 L 172.37315368652344 201.64285278320312" fill-opacity="0.5019607843137255" clip-path="url(#PtuslCfaSckP)"/><path fill="rgb(75,0,130)" stroke="none" paint-order="stroke" d="M 184.88040161132812 354.5 L 197.38766479492188 354.5 L 197.38766479492188 354.5 L 184.88040161132812 354.5 L 184.88040161132812 354.5" fill-opacity="0.40784313725490196" clip-path="url(#PtuslCfaSckP)"/><path fill="rgb(75,0,130)" stroke="none" paint-order="stroke" d="M 197.38766479492188 354.5 L 209.89492797851562 354.5 L 209.89492797851562 354.5 L 197.38766479492188 354.5 L 197.38766479492188 354.5" fill-opacity="0.40784313725490196" clip-path="url(#PtuslCfaSckP)"/><path fill="rgb(75,0,130)" stroke="none" paint-order="stroke" d="M 209.89492797851562 354.5 L 222.4021759033203 354.5 L 222.4021759033203 354.5 L 209.89492797851562 354.5 L 209.89492797851562 354.5" fill-opacity="0.40784313725490196" clip-path="url(#PtuslCfaSckP)"/><path fill="rgb(75,0,130)" stroke="none" paint-order="stroke" d="M 222.4021759033203 354.5 L 234.90943908691406 354.5 L 234.90943908691406 354.5 L 222.4021759033203 354.5 L 222.4021759033203 354.5" fill-opacity="0.40784313725490196" clip-path="url(#PtuslCfaSckP)"/><path fill="rgb(75,0,130)" stroke="none" paint-order="stroke" d="M 234.90943908691406 201.64285278320312 L 247.4167022705078 201.64285278320312 L 247.4167022705078 354.5 L 234.90943908691406 354.5 L 234.90943908691406 201.64285278320312" fill-opacity="0.5019607843137255" clip-path="url(#PtuslCfaSckP)"/><path fill="rgb(75,0,130)" stroke="none" paint-order="stroke" d="M 247.4167022705078 354.5 L 259.9239501953125 354.5 L 259.9239501953125 354.5 L 247.4167022705078 354.5 L 247.4167022705078 354.5" fill-opacity="0.40784313725490196" clip-path="url(#PtuslCfaSckP)"/><path fill="rgb(75,0,130)" stroke="none" paint-order="stroke" d="M 259.9239501953125 201.64285278320312 L 272.43121337890625 201.64285278320312 L 272.43121337890625 354.5 L 259.9239501953125 354.5 L 259.9239501953125 201.64285278320312" fill-opacity="0.5019607843137255" clip-path="url(#PtuslCfaSckP)"/><path fill="rgb(75,0,130)" stroke="none" paint-order="stroke" d="M 272.43121337890625 48.78571319580078 L 284.9384765625 48.78571319580078 L 284.9384765625 354.5 L 272.43121337890625 354.5 L 272.43121337890625 48.78571319580078" fill-opacity="0.592156862745098" clip-path="url(#PtuslCfaSckP)"/><path fill="rgb(75,0,130)" stroke="none" paint-order="stroke" d="M 284.9384765625 48.78571319580078 L 297.44573974609375 48.78571319580078 L 297.44573974609375 354.5 L 284.9384765625 354.5 L 284.9384765625 48.78571319580078" fill-opacity="0.592156862745098" clip-path="url(#PtuslCfaSckP)"/><path fill="rgb(75,0,130)" stroke="none" paint-order="stroke" d="M 297.44573974609375 201.64285278320312 L 309.9530029296875 201.64285278320312 L 309.9530029296875 354.5 L 297.44573974609375 354.5 L 297.44573974609375 201.64285278320312" fill-opacity="0.5019607843137255" clip-path="url(#PtuslCfaSckP)"/><path fill="rgb(75,0,130)" stroke="none" paint-order="stroke" d="M 309.9530029296875 354.5 L 322.46026611328125 354.5 L 322.46026611328125 354.5 L 309.9530029296875 354.5 L 309.9530029296875 354.5" fill-opacity="0.40784313725490196" clip-path="url(#PtuslCfaSckP)"/><path fill="rgb(75,0,130)" stroke="none" paint-order="stroke" d="M 322.46026611328125 354.5 L 334.9674987792969 354.5 L 334.9674987792969 354.5 L 322.46026611328125 354.5 L 322.46026611328125 354.5" fill-opacity="0.40784313725490196" clip-path="url(#PtuslCfaSckP)"/><path fill="rgb(75,0,130)" stroke="none" paint-order="stroke" d="M 334.9674987792969 354.5 L 347.4747619628906 354.5 L 347.4747619628906 354.5 L 334.9674987792969 354.5 L 334.9674987792969 354.5" fill-opacity="0.40784313725490196" clip-path="url(#PtuslCfaSckP)"/><path fill="rgb(75,0,130)" stroke="none" paint-order="stroke" d="M 347.4747619628906 354.5 L 359.9820251464844 354.5 L 359.9820251464844 354.5 L 347.4747619628906 354.5 L 347.4747619628906 354.5" fill-opacity="0.40784313725490196" clip-path="url(#PtuslCfaSckP)"/><path fill="rgb(75,0,130)" stroke="none" paint-order="stroke" d="M 359.9820251464844 354.5 L 372.4892883300781 354.5 L 372.4892883300781 354.5 L 359.9820251464844 354.5 L 359.9820251464844 354.5" fill-opacity="0.40784313725490196" clip-path="url(#PtuslCfaSckP)"/><path fill="rgb(75,0,130)" stroke="none" paint-order="stroke" d="M 372.4892883300781 354.5 L 384.9965515136719 354.5 L 384.9965515136719 354.5 L 372.4892883300781 354.5 L 372.4892883300781 354.5" fill-opacity="0.40784313725490196" clip-path="url(#PtuslCfaSckP)"/><path fill="rgb(75,0,130)" stroke="none" paint-order="stroke" d="M 384.9965515136719 201.64285278320312 L 397.5038146972656 201.64285278320312 L 397.5038146972656 354.5 L 384.9965515136719 354.5 L 384.9965515136719 201.64285278320312" fill-opacity="0.5019607843137255" clip-path="url(#PtuslCfaSckP)"/><path fill="rgb(75,0,130)" stroke="none" paint-order="stroke" d="M 397.5038146972656 354.5 L 410.0110778808594 354.5 L 410.0110778808594 354.5 L 397.5038146972656 354.5 L 397.5038146972656 354.5" fill-opacity="0.40784313725490196" clip-path="url(#PtuslCfaSckP)"/><path fill="rgb(75,0,130)" stroke="none" paint-order="stroke" d="M 410.0110778808594 201.64285278320312 L 422.518310546875 201.64285278320312 L 422.518310546875 354.5 L 410.0110778808594 354.5 L 410.0110778808594 201.64285278320312" fill-opacity="0.5019607843137255" clip-path="url(#PtuslCfaSckP)"/><path fill="rgb(75,0,130)" stroke="none" paint-order="stroke" d="M 422.518310546875 354.5 L 435.02557373046875 354.5 L 435.02557373046875 354.5 L 422.518310546875 354.5 L 422.518310546875 354.5" fill-opacity="0.40784313725490196" clip-path="url(#PtuslCfaSckP)"/><path fill="rgb(75,0,130)" stroke="none" paint-order="stroke" d="M 435.02557373046875 354.5 L 447.5328369140625 354.5 L 447.5328369140625 354.5 L 435.02557373046875 354.5 L 435.02557373046875 354.5" fill-opacity="0.40784313725490196" clip-path="url(#PtuslCfaSckP)"/><path fill="rgb(75,0,130)" stroke="none" paint-order="stroke" d="M 447.5328369140625 354.5 L 460.04010009765625 354.5 L 460.04010009765625 354.5 L 447.5328369140625 354.5 L 447.5328369140625 354.5" fill-opacity="0.40784313725490196" clip-path="url(#PtuslCfaSckP)"/><path fill="rgb(75,0,130)" stroke="none" paint-order="stroke" d="M 460.04010009765625 354.5 L 472.54736328125 354.5 L 472.54736328125 354.5 L 460.04010009765625 354.5 L 460.04010009765625 354.5" fill-opacity="0.40784313725490196" clip-path="url(#PtuslCfaSckP)"/><path fill="rgb(75,0,130)" stroke="none" paint-order="stroke" d="M 472.54736328125 354.5 L 485.05462646484375 354.5 L 485.05462646484375 354.5 L 472.54736328125 354.5 L 472.54736328125 354.5" fill-opacity="0.40784313725490196" clip-path="url(#PtuslCfaSckP)"/><path fill="rgb(75,0,130)" stroke="none" paint-order="stroke" d="M 485.05462646484375 354.5 L 497.5618591308594 354.5 L 497.5618591308594 354.5 L 485.05462646484375 354.5 L 485.05462646484375 354.5" fill-opacity="0.40784313725490196" clip-path="url(#PtuslCfaSckP)"/><path fill="rgb(75,0,130)" stroke="none" paint-order="stroke" d="M 497.5618591308594 354.5 L 510.0691223144531 354.5 L 510.0691223144531 354.5 L 497.5618591308594 354.5 L 497.5618591308594 354.5" fill-opacity="0.40784313725490196" clip-path="url(#PtuslCfaSckP)"/><path fill="rgb(75,0,130)" stroke="none" paint-order="stroke" d="M 510.0691223144531 354.5 L 522.576416015625 354.5 L 522.576416015625 354.5 L 510.0691223144531 354.5 L 510.0691223144531 354.5" fill-opacity="0.40784313725490196" clip-path="url(#PtuslCfaSckP)"/><path fill="rgb(75,0,130)" stroke="none" paint-order="stroke" d="M 522.576416015625 354.5 L 535.0836791992188 354.5 L 535.0836791992188 354.5 L 522.576416015625 354.5 L 522.576416015625 354.5" fill-opacity="0.40784313725490196" clip-path="url(#PtuslCfaSckP)"/><path fill="rgb(75,0,130)" stroke="none" paint-order="stroke" d="M 535.0836791992188 201.64285278320312 L 547.5908813476562 201.64285278320312 L 547.5908813476562 354.5 L 535.0836791992188 354.5 L 535.0836791992188 201.64285278320312" fill-opacity="0.5019607843137255" clip-path="url(#PtuslCfaSckP)"/><path fill="none" stroke="rgb(0,0,0)" paint-order="fill" d="M 66.5 354.5 L 570.5 354.5" stroke-opacity="1" stroke-linejoin="bevel" stroke-miterlimit="10" stroke-dasharray=""/><path fill="none" stroke="rgb(0,0,0)" paint-order="fill" d="M 131.5 360.5 L 131.5 352.5 M 220.5 360.5 L 220.5 352.5 M 310.5 360.5 L 310.5 352.5 M 399.5 360.5 L 399.5 352.5 M 489.5 360.5 L 489.5 352.5" stroke-opacity="1" stroke-linejoin="bevel" stroke-miterlimit="10" stroke-dasharray=""/><path fill="none" stroke="rgb(0,0,0)" paint-order="fill" d="M 113.5 358.5 L 113.5 354.5 M 95.5 358.5 L 95.5 354.5 M 77.5 358.5 L 77.5 354.5 M 131.5 358.5 L 131.5 354.5 M 148.5 358.5 L 148.5 354.5 M 166.5 358.5 L 166.5 354.5 M 184.5 358.5 L 184.5 354.5 M 202.5 358.5 L 202.5 354.5 M 220.5 358.5 L 220.5 354.5 M 238.5 358.5 L 238.5 354.5 M 256.5 358.5 L 256.5 354.5 M 274.5 358.5 L 274.5 354.5 M 292.5 358.5 L 292.5 354.5 M 310.5 358.5 L 310.5 354.5 M 327.5 358.5 L 327.5 354.5 M 345.5 358.5 L 345.5 354.5 M 363.5 358.5 L 363.5 354.5 M 381.5 358.5 L 381.5 354.5 M 399.5 358.5 L 399.5 354.5 M 417.5 358.5 L 417.5 354.5 M 435.5 358.5 L 435.5 354.5 M 453.5 358.5 L 453.5 354.5 M 471.5 358.5 L 471.5 354.5 M 489.5 358.5 L 489.5 354.5 M 507.5 358.5 L 507.5 354.5 M 524.5 358.5 L 524.5 354.5 M 542.5 358.5 L 542.5 354.5 M 560.5 358.5 L 560.5 354.5" stroke-opacity="1" stroke-linejoin="bevel" stroke-miterlimit="10" stroke-dasharray=""/><text fill="rgb(68,68,68)" stroke="none" font-family="helvetica" font-size="11px" font-style="normal" font-weight="normal" text-decoration="normal" x="127.09223937988281" y="373" text-anchor="start" dominant-baseline="alphabetic" transform="matrix(1, 0, 0, 1, 0.5, 0.5)" fill-opacity="1">5</text><text fill="rgb(68,68,68)" stroke="none" font-family="helvetica" font-size="11px" font-style="normal" font-weight="normal" text-decoration="normal" x="216.5941619873047" y="373" text-anchor="start" dominant-baseline="alphabetic" transform="matrix(1, 0, 0, 1, 0.5, 0.5)" fill-opacity="1">6</text><text fill="rgb(68,68,68)" stroke="none" font-family="helvetica" font-size="11px" font-style="normal" font-weight="normal" text-decoration="normal" x="306.0960693359375" y="373" text-anchor="start" dominant-baseline="alphabetic" transform="matrix(1, 0, 0, 1, 0.5, 0.5)" fill-opacity="1">7</text><text fill="rgb(68,68,68)" stroke="none" font-family="helvetica" font-size="11px" font-style="normal" font-weight="normal" text-decoration="normal" x="395.5979919433594" y="373" text-anchor="start" dominant-baseline="alphabetic" transform="matrix(1, 0, 0, 1, 0.5, 0.5)" fill-opacity="1">8</text><text fill="rgb(68,68,68)" stroke="none" font-family="helvetica" font-size="11px" font-style="normal" font-weight="normal" text-decoration="normal" x="485.09991455078125" y="373" text-anchor="start" dominant-baseline="alphabetic" transform="matrix(1, 0, 0, 1, 0.5, 0.5)" fill-opacity="1">9</text><text fill="rgb(68,68,68)" stroke="none" font-family="helvetica" font-size="13px" font-style="italic" font-weight="normal" text-decoration="normal" x="262.9749984741211" y="394" text-anchor="start" dominant-baseline="alphabetic" transform="matrix(1, 0, 0, 1, 0.5, 0.5)" fill-opacity="1">Prediction Score</text><path fill="none" stroke="rgb(0,0,0)" paint-order="fill" d="M 66.5 354.5 L 66.5 33.5" stroke-opacity="1" stroke-linejoin="bevel" stroke-miterlimit="10" stroke-dasharray=""/><path fill="none" stroke="rgb(0,0,0)" paint-order="fill" d="M 60.5 354.5 L 68.5 354.5 M 60.5 270.5 L 68.5 270.5 M 60.5 186.5 L 68.5 186.5 M 60.5 102.5 L 68.5 102.5" stroke-opacity="1" stroke-linejoin="bevel" stroke-miterlimit="10" stroke-dasharray=""/><path fill="none" stroke="rgb(0,0,0)" paint-order="fill" d="M 62.5 354.5 L 66.5 354.5 M 62.5 337.5 L 66.5 337.5 M 62.5 320.5 L 66.5 320.5 M 62.5 304.5 L 66.5 304.5 M 62.5 287.5 L 66.5 287.5 M 62.5 270.5 L 66.5 270.5 M 62.5 253.5 L 66.5 253.5 M 62.5 236.5 L 66.5 236.5 M 62.5 219.5 L 66.5 219.5 M 62.5 203.5 L 66.5 203.5 M 62.5 186.5 L 66.5 186.5 M 62.5 169.5 L 66.5 169.5 M 62.5 152.5 L 66.5 152.5 M 62.5 135.5 L 66.5 135.5 M 62.5 119.5 L 66.5 119.5 M 62.5 102.5 L 66.5 102.5 M 62.5 85.5 L 66.5 85.5 M 62.5 68.5 L 66.5 68.5 M 62.5 51.5 L 66.5 51.5 M 62.5 35.5 L 66.5 35.5" stroke-opacity="1" stroke-linejoin="bevel" stroke-miterlimit="10" stroke-dasharray=""/><text fill="rgb(68,68,68)" stroke="none" font-family="helvetica" font-size="11px" font-style="normal" font-weight="normal" text-decoration="normal" x="34.04999923706055" y="357.5" text-anchor="start" dominant-baseline="alphabetic" transform="matrix(1, 0, 0, 1, 0.5, 0.5)" fill-opacity="1">0 %</text><text fill="rgb(68,68,68)" stroke="none" font-family="helvetica" font-size="11px" font-style="normal" font-weight="normal" text-decoration="normal" x="34.04999923706055" y="273.4285583496094" text-anchor="start" dominant-baseline="alphabetic" transform="matrix(1, 0, 0, 1, 0.5, 0.5)" fill-opacity="1">5 %</text><text fill="rgb(68,68,68)" stroke="none" font-family="helvetica" font-size="11px" font-style="normal" font-weight="normal" text-decoration="normal" x="27.049999237060547" y="189.35714721679688" text-anchor="start" dominant-baseline="alphabetic" transform="matrix(1, 0, 0, 1, 0.5, 0.5)" fill-opacity="1">10 %</text><text fill="rgb(68,68,68)" stroke="none" font-family="helvetica" font-size="11px" font-style="normal" font-weight="normal" text-decoration="normal" x="27.049999237060547" y="105.28571319580078" text-anchor="start" dominant-baseline="alphabetic" transform="matrix(1, 0, 0, 1, 0.5, 0.5)" fill-opacity="1">15 %</text><text fill="rgb(68,68,68)" stroke="none" font-family="helvetica" font-size="13px" font-style="italic" font-weight="normal" text-decoration="normal" x="-16.375" y="190.5" text-anchor="start" dominant-baseline="alphabetic" transform="matrix(6.123233995736766e-17, -1, 1, 6.123233995736766e-17, -173.95000076293945, 213.04999923706055)" fill-opacity="1"># Samples</text><path fill="rgb(255,255,255)" stroke="rgb(229,229,229)" paint-order="fill" d="M 487.2333335876465 43.5 L 560.5 43.5 L 560.5 106.5 L 487.2333335876465 106.5 L 487.2333335876465 43.5" fill-opacity="0.9490196078431372" clip-path="url(#nGPuqyRkDtAL)" stroke-opacity="0.5019607843137255" stroke-linejoin="bevel" stroke-miterlimit="10" stroke-dasharray=""/><text fill="rgb(68,68,68)" stroke="none" font-family="helvetica" font-size="8pt" font-style="normal" font-weight="normal" text-decoration="normal" x="521.7333335876465" y="63" text-anchor="start" dominant-baseline="central" transform="matrix(1, 0, 0, 1, 0.5, 0.5)" fill-opacity="1">False</text><path fill="rgb(220,20,60)" stroke="none" paint-order="stroke" d="M 499.2333335876465 55.5 L 515.2333335876465 55.5 L 515.2333335876465 71.5 L 499.2333335876465 71.5 L 499.2333335876465 55.5" fill-opacity="0.5019607843137255" clip-path="url(#nGPuqyRkDtAL)"/><text fill="rgb(68,68,68)" stroke="none" font-family="helvetica" font-size="8pt" font-style="normal" font-weight="normal" text-decoration="normal" x="521.7333335876465" y="86" text-anchor="start" dominant-baseline="central" transform="matrix(1, 0, 0, 1, 0.5, 0.5)" fill-opacity="1">True</text><path fill="rgb(75,0,130)" stroke="none" paint-order="stroke" d="M 499.2333335876465 78.5 L 515.2333335876465 78.5 L 515.2333335876465 94.5 L 499.2333335876465 94.5 L 499.2333335876465 78.5" fill-opacity="0.5019607843137255" clip-path="url(#nGPuqyRkDtAL)"/><path fill="none" stroke="none"/><text fill="rgb(68,68,68)" stroke="none" font-family="helvetica" font-size="12pt" font-style="normal" font-weight="bold" text-decoration="normal" x="0" y="0" text-anchor="middle" dominant-baseline="text-after-edge" transform="matrix(1, 0, 0, 1, 318.5, 28.5)" fill-opacity="1">AutoEncoder: Prediction Score Histogram by Class</text></svg>