<svg version="1.1" xmlns="http://www.w3.org/2000/svg" xmlns:xlink="http://www.w3.org/1999/xlink" width="600" height="400"><defs><clipPath id="bMZJvEmULTKU"><path fill="none" stroke="none" d="M 45.5 33.5 L 570.5 33.5 L 570.5 354.5 L 45.5 354.5 L 45.5 33.5"/></clipPath><clipPath id="fGDiQeodBVla"><path fill="none" stroke="none" d="M 45.5 33.5 L 570.5 33.5 L 570.5 354.5 L 45.5 354.5 L 45.5 33.5"/></clipPath><clipPath id="TRgwGoCbWLEO"><path fill="none" stroke="none" d="M 45.5 33.5 L 570.5 33.5 L 570.5 354.5 L 45.5 354.5 L 45.5 33.5"/></clipPath><clipPath id="TPTWTIBqPIUR"><path fill="none" stroke="none" d="M 45.5 33.5 L 570.5 33.5 L 570.5 354.5 L 45.5 354.5 L 45.5 33.5"/></clipPath><clipPath id="lRRRdrLJtZox"><path fill="none" stroke="none" d="M 45.5 33.5 L 570.5 33.5 L 570.5 354.5 L 45.5 354.5 L 45.5 33.5"/></clipPath><clipPath id="dcHtycTVtcTi"><path fill="none" stroke="none" d="M 45.5 33.5 L 570.5 33.5 L 570.5 354.5 L 45.5 354.5 L 45.5 33.5"/></clipPath><clipPath id="oWrvQOJiSNbL"><path fill="none" stroke="none" d="M 45.5 33.5 L 570.5 33.5 L 570.5 354.5 L 45.5 354.5 L 45.5 33.5"/></clipPath></defs><path fill="rgb(255,255,255)" stroke="none" paint-order="stroke" d="M 0.5 0.5 L 600.5 0.5 L 600.5 400.5 L 0.5 400.5 L 0.5 0.5" fill-opacity="1"/><rect fill="#FFFFFF" stroke="none" x="45" y="33" width="525" height="321" transform="matrix(1, 0, 0, 1, 0.5, 0.5)"/><path fill="rgb(255,255,255)" stroke="none" paint-order="stroke" d="M 45.5 33.5 L 570.5 33.5 L 570.5 354.5 L 45.5 354.5 L 45.5 33.5" fill-opacity="1"/><path fill="none" stroke="rgb(229,229,229)" paint-order="fill" d="M 45.5 33.5 L 570.5 33.5 L 570.5 354.5 L 45.5 354.5 L 45.5 33.5" stroke-opacity="1" stroke-linejoin="bevel" stroke-miterlimit="10" stroke-dasharray=""/><path fill="none" stroke="rgb(229,229,229)" paint-order="fill" d="M 69.5 354.5 L 69.5 33.5 M 173.5 354.5 L 173.5 33.5 M 276.5 354.5 L 276.5 33.5 M 380.5 354.5 L 380.5 33.5 M 484.5 354.5 L 484.5 33.5" stroke-opacity="1" stroke-linejoin="bevel" stroke-miterlimit="10" stroke-dasharray="" clip-path="url(#bMZJvEmULTKU)"/><path fill="none" stroke="rgb(229,229,229)" paint-order="fill" d="M 45.5 313.5 L 570.5 313.5 M 45.5 256.5 L 570.5 256.5 M 45.5 199.5 L 570.5 199.5 M 45.5 142.5 L 570.5 142.5 M 45.5 85.5 L 570.5 85.5" stroke-opacity="1" stroke-linejoin="bevel" stroke-miterlimit="10" stroke-dasharray="" clip-path="url(#fGDiQeodBVla)"/><path fill="none" stroke="none"/><path fill="rgb(220,20,60)" stroke="none" paint-order="stroke" d="M 92.1146240234375 332.2013244628906 A 2 2 0 1 1 92.11462302343759 332.19932446322395" fill-opacity="0.6" clip-path="url(#TRgwGoCbWLEO)"/><path fill="rgb(220,20,60)" stroke="none" paint-order="stroke" d="M 112.86561584472656 302.05804443359375 A 2 2 0 1 1 112.86561484472665 302.05604443392707" fill-opacity="0.6" clip-path="url(#TRgwGoCbWLEO)"/><path fill="rgb(220,20,60)" stroke="none" paint-order="stroke" d="M 154.36758422851562 319.017578125 A 2 2 0 1 1 154.3675832285157 319.0155781253333" fill-opacity="0.6" clip-path="url(#TRgwGoCbWLEO)"/><path fill="rgb(220,20,60)" stroke="none" paint-order="stroke" d="M 195.86956787109375 269.6959533691406 A 2 2 0 1 1 195.86956687109384 269.69395336947395" fill-opacity="0.6" clip-path="url(#TRgwGoCbWLEO)"/><path fill="rgb(220,20,60)" stroke="none" paint-order="stroke" d="M 278.8735046386719 237.63914489746094 A 2 2 0 1 1 278.87350363867193 237.63714489779426" fill-opacity="0.6" clip-path="url(#TRgwGoCbWLEO)"/><path fill="rgb(220,20,60)" stroke="none" paint-order="stroke" d="M 299.62451171875 314.75537109375 A 2 2 0 1 1 299.62451071875006 314.7533710940833" fill-opacity="0.6" clip-path="url(#TRgwGoCbWLEO)"/><path fill="rgb(220,20,60)" stroke="none" paint-order="stroke" d="M 341.1264953613281 332.3277282714844 A 2 2 0 1 1 341.1264943613282 332.3257282718177" fill-opacity="0.6" clip-path="url(#TRgwGoCbWLEO)"/><path fill="rgb(220,20,60)" stroke="none" paint-order="stroke" d="M 382.6284484863281 329.659423828125 A 2 2 0 1 1 382.6284474863282 329.6574238284583" fill-opacity="0.6" clip-path="url(#TRgwGoCbWLEO)"/><path fill="rgb(220,20,60)" stroke="none" paint-order="stroke" d="M 403.37945556640625 339.9090881347656 A 2 2 0 1 1 403.3794545664063 339.90708813509895" fill-opacity="0.6" clip-path="url(#TRgwGoCbWLEO)"/><path fill="rgb(220,20,60)" stroke="none" paint-order="stroke" d="M 444.88140869140625 292.96258544921875 A 2 2 0 1 1 444.8814076914063 292.96058544955207" fill-opacity="0.6" clip-path="url(#TRgwGoCbWLEO)"/><path fill="rgb(220,20,60)" stroke="none" paint-order="stroke" d="M 486.3833923339844 308.6509704589844 A 2 2 0 1 1 486.38339133398443 308.6489704593177" fill-opacity="0.6" clip-path="url(#TRgwGoCbWLEO)"/><path fill="rgb(220,20,60)" stroke="none" paint-order="stroke" d="M 507.1343994140625 273.1173095703125 A 2 2 0 1 1 507.13439841406256 273.1153095706458" fill-opacity="0.6" clip-path="url(#TRgwGoCbWLEO)"/><path fill="rgb(220,20,60)" stroke="none" paint-order="stroke" d="M 527.8853759765625 324.8578186035156 A 2 2 0 1 1 527.8853749765626 324.85581860384895" fill-opacity="0.6" clip-path="url(#TRgwGoCbWLEO)"/><path fill="none" stroke="none"/><path fill="rgb(75,0,130)" stroke="none" paint-order="stroke" d="M 71.36363983154297 207.35858154296875 A 2 2 0 1 1 71.36363883154306 207.35658154330207" fill-opacity="0.6" clip-path="url(#TPTWTIBqPIUR)"/><path fill="rgb(75,0,130)" stroke="none" paint-order="stroke" d="M 133.61660766601562 131.1154022216797 A 2 2 0 1 1 133.6166066660157 131.113402222013" fill-opacity="0.6" clip-path="url(#TPTWTIBqPIUR)"/><path fill="rgb(75,0,130)" stroke="none" paint-order="stroke" d="M 175.1185760498047 224.98663330078125 A 2 2 0 1 1 175.11857504980478 224.98463330111457" fill-opacity="0.6" clip-path="url(#TPTWTIBqPIUR)"/><path fill="rgb(75,0,130)" stroke="none" paint-order="stroke" d="M 216.6205596923828 210.7440948486328 A 2 2 0 1 1 216.6205586923829 210.74209484896613" fill-opacity="0.6" clip-path="url(#TPTWTIBqPIUR)"/><path fill="rgb(75,0,130)" stroke="none" paint-order="stroke" d="M 237.3715362548828 216.41636657714844 A 2 2 0 1 1 237.3715352548829 216.41436657748176" fill-opacity="0.6" clip-path="url(#TPTWTIBqPIUR)"/><path fill="rgb(75,0,130)" stroke="none" paint-order="stroke" d="M 258.1225280761719 242.3491668701172 A 2 2 0 1 1 258.12252707617193 242.3471668704505" fill-opacity="0.6" clip-path="url(#TPTWTIBqPIUR)"/><path fill="rgb(75,0,130)" stroke="none" paint-order="stroke" d="M 320.37548828125 287.0688781738281 A 2 2 0 1 1 320.37548728125006 287.06687817416145" fill-opacity="0.6" clip-path="url(#TPTWTIBqPIUR)"/><path fill="rgb(75,0,130)" stroke="none" paint-order="stroke" d="M 361.8774719238281 150.0908203125 A 2 2 0 1 1 361.8774709238282 150.08882031283332" fill-opacity="0.6" clip-path="url(#TPTWTIBqPIUR)"/><path fill="rgb(75,0,130)" stroke="none" paint-order="stroke" d="M 424.13043212890625 48.09090805053711 A 2 2 0 1 1 424.1304311289063 48.088908050870444" fill-opacity="0.6" clip-path="url(#TPTWTIBqPIUR)"/><path fill="rgb(75,0,130)" stroke="none" paint-order="stroke" d="M 465.6324157714844 221.44610595703125 A 2 2 0 1 1 465.63241477148443 221.44410595736457" fill-opacity="0.6" clip-path="url(#TPTWTIBqPIUR)"/><path fill="rgb(75,0,130)" stroke="none" paint-order="stroke" d="M 548.6363525390625 211.5663299560547 A 2 2 0 1 1 548.6363515390626 211.564329956388" fill-opacity="0.6" clip-path="url(#TPTWTIBqPIUR)"/><path fill="none" stroke="rgb(0,0,0)" paint-order="fill" d="M 45.5 354.5 L 570.5 354.5" stroke-opacity="1" stroke-linejoin="bevel" stroke-miterlimit="10" stroke-dasharray=""/><path fill="none" stroke="rgb(0,0,0)" paint-order="fill" d="M 69.5 360.5 L 69.5 352.5 M 173.5 360.5 L 173.5 352.5 M 276.5 360.5 L 276.5 352.5 M 380.5 360.5 L 380.5 352.5 M 484.5 360.5 L 484.5 352.5" stroke-opacity="1" stroke-linejoin="bevel" stroke-miterlimit="10" stroke-dasharray=""/><path fill="none" stroke="rgb(0,0,0)" paint-order="fill" d="M 48.5 358.5 L 48.5 354.5 M 69.5 358.5 L 69.5 354.5 M 90.5 358.5 L 90.5 354.5 M 110.5 358.5 L 110.5 354.5 M 131.5 358.5 L 131.5 354.5 M 152.5 358.5 L 152.5 354.5 M 173.5 358.5 L 173.5 354.5 M 193.5 358.5 L 193.5 354.5 M 214.5 358.5 L 214.5 354.5 M 235.5 358.5 L 235.5 354.5 M 256.5 358.5 L 256.5 354.5 M 276.5 358.5 L 276.5 354.5 M 297.5 358.5 L 297.5 354.5 M 318.5 358.5 L 318.5 354.5 M 339.5 358.5 L 339.5 354.5 M 359.5 358.5 L 359.5 354.5 M 380.5 358.5 L 380.5 354.5 M 401.5 358.5 L 401.5 354.5 M 422.5 358.5 L 422.5 354.5 M 442.5 358.5 L 442.5 354.5 M 463.5 358.5 L 463.5 354.5 M 484.5 358.5 L 484.5 354.5 M 505.5 358.5 L 505.5 354.5 M 525.5 358.5 L 525.5 354.5 M 546.5 358.5 L 546.5 354.5 M 567.5 358.5 L 567.5 354.5" stroke-opacity="1" stroke-linejoin="bevel" stroke-miterlimit="10" stroke-dasharray=""/><text fill="rgb(68,68,68)" stroke="none" font-family="helvetica" font-size="11px" font-style="normal" font-weight="normal" text-decoration="normal" x="65.36363983154297" y="373" text-anchor="start" dominant-baseline="alphabetic" transform="matrix(1, 0, 0, 1, 0.5, 0.5)" fill-opacity="1">0</text><text fill="rgb(68,68,68)" stroke="none" font-family="helvetica" font-size="11px" font-style="normal" font-weight="normal" text-decoration="normal" x="169.1185760498047" y="373" text-anchor="start" dominant-baseline="alphabetic" transform="matrix(1, 0, 0, 1, 0.5, 0.5)" fill-opacity="1">5</text><text fill="rgb(68,68,68)" stroke="none" font-family="helvetica" font-size="11px" font-style="normal" font-weight="normal" text-decoration="normal" x="269.3735046386719" y="373" text-anchor="start" dominant-baseline="alphabetic" transform="matrix(1, 0, 0, 1, 0.5, 0.5)" fill-opacity="1">10</text><text fill="rgb(68,68,68)" stroke="none" font-family="helvetica" font-size="11px" font-style="normal" font-weight="normal" text-decoration="normal" x="373.1284484863281" y="373" text-anchor="start" dominant-baseline="alphabetic" transform="matrix(1, 0, 0, 1, 0.5, 0.5)" fill-opacity="1">15</text><text fill="rgb(68,68,68)" stroke="none" font-family="helvetica" font-size="11px" font-style="normal" font-weight="normal" text-decoration="normal" x="476.8833923339844" y="373" text-anchor="start" dominant-baseline="alphabetic" transform="matrix(1, 0, 0, 1, 0.5, 0.5)" fill-opacity="1">20</text><text fill="rgb(68,68,68)" stroke="none" font-family="helvetica" font-size="13px" font-style="italic" font-weight="normal" text-decoration="normal" x="279.59166717529297" y="394" text-anchor="start" dominant-baseline="alphabetic" transform="matrix(1, 0, 0, 1, 0.5, 0.5)" fill-opacity="1">Samples</text><path fill="none" stroke="rgb(0,0,0)" paint-order="fill" d="M 45.5 354.5 L 45.5 33.5" stroke-opacity="1" stroke-linejoin="bevel" stroke-miterlimit="10" stroke-dasharray=""/><path fill="none" stroke="rgb(0,0,0)" paint-order="fill" d="M 39.5 313.5 L 47.5 313.5 M 39.5 256.5 L 47.5 256.5 M 39.5 199.5 L 47.5 199.5 M 39.5 142.5 L 47.5 142.5 M 39.5 85.5 L 47.5 85.5" stroke-opacity="1" stroke-linejoin="bevel" stroke-miterlimit="10" stroke-dasharray=""/><path fill="none" stroke="rgb(0,0,0)" paint-order="fill" d="M 41.5 324.5 L 45.5 324.5 M 41.5 336.5 L 45.5 336.5 M 41.5 347.5 L 45.5 347.5 M 41.5 313.5 L 45.5 313.5 M 41.5 301.5 L 45.5 301.5 M 41.5 290.5 L 45.5 290.5 M 41.5 279.5 L 45.5 279.5 M 41.5 267.5 L 45.5 267.5 M 41.5 256.5 L 45.5 256.5 M 41.5 244.5 L 45.5 244.5 M 41.5 233.5 L 45.5 233.5 M 41.5 222.5 L 45.5 222.5 M 41.5 210.5 L 45.5 210.5 M 41.5 199.5 L 45.5 199.5 M 41.5 187.5 L 45.5 187.5 M 41.5 176.5 L 45.5 176.5 M 41.5 165.5 L 45.5 165.5 M 41.5 153.5 L 45.5 153.5 M 41.5 142.5 L 45.5 142.5 M 41.5 130.5 L 45.5 130.5 M 41.5 119.5 L 45.5 119.5 M 41.5 108.5 L 45.5 108.5 M 41.5 96.5 L 45.5 96.5 M 41.5 85.5 L 45.5 85.5 M 41.5 73.5 L 45.5 73.5 M 41.5 62.5 L 45.5 62.5 M 41.5 51.5 L 45.5 51.5 M 41.5 39.5 L 45.5 39.5" stroke-opacity="1" stroke-linejoin="bevel" stroke-miterlimit="10" stroke-dasharray=""/><text fill="rgb(68,68,68)" stroke="none" font-family="helvetica" font-size="11px" font-style="normal" font-weight="normal" text-decoration="normal" x="27" y="316.86090087890625" text-anchor="start" dominant-baseline="alphabetic" transform="matrix(1, 0, 0, 1, 0.5, 0.5)" fill-opacity="1">5</text><text fill="rgb(68,68,68)" stroke="none" font-family="helvetica" font-size="11px" font-style="normal" font-weight="normal" text-decoration="normal" x="27" y="259.85670471191406" text-anchor="start" dominant-baseline="alphabetic" transform="matrix(1, 0, 0, 1, 0.5, 0.5)" fill-opacity="1">6</text><text fill="rgb(68,68,68)" stroke="none" font-family="helvetica" font-size="11px" font-style="normal" font-weight="normal" text-decoration="normal" x="27" y="202.85250854492188" text-anchor="start" dominant-baseline="alphabetic" transform="matrix(1, 0, 0, 1, 0.5, 0.5)" fill-opacity="1">7</text><text fill="rgb(68,68,68)" stroke="none" font-family="helvetica" font-size="11px" font-style="normal" font-weight="normal" text-decoration="normal" x="27" y="145.8483123779297" text-anchor="start" dominant-baseline="alphabetic" transform="matrix(1, 0, 0, 1, 0.5, 0.5)" fill-opacity="1">8</text><text fill="rgb(68,68,68)" stroke="none" font-family="helvetica" font-size="11px" font-style="normal" font-weight="normal" text-decoration="normal" x="27" y="88.84410858154297" text-anchor="start" dominant-baseline="alphabetic" transform="matrix(1, 0, 0, 1, 0.5, 0.5)" fill-opacity="1">9</text><text fill="rgb(68,68,68)" stroke="none" font-family="helvetica" font-size="13px" font-style="italic" font-weight="normal" text-decoration="normal" x="-51.19166564941406" y="190.5" text-anchor="start" dominant-baseline="alphabetic" transform="matrix(6.123233995736766e-17, -1, 1, 6.123233995736766e-17, -174, 213)" fill-opacity="1">Reconstruction Error</text><path fill="rgb(255,255,255)" stroke="rgb(229,229,229)" paint-order="fill" d="M 419.56666564941406 43.5 L 560.5 43.5 L 560.5 106.5 L 419.56666564941406 106.5 L 419.56666564941406 43.5" fill-opacity="0.9490196078431372" clip-path="url(#lRRRdrLJtZox)" stroke-opacity="0.5019607843137255" stroke-linejoin="bevel" stroke-miterlimit="10" stroke-dasharray=""/><text fill="rgb(68,68,68)" stroke="none" font-family="helvetica" font-size="8pt" font-style="normal" font-weight="normal" text-decoration="normal" x="454.06666564941406" y="63" text-anchor="start" dominant-baseline="central" transform="matrix(1, 0, 0, 1, 0.5, 0.5)" fill-opacity="1">Normal Signals</text><path fill="rgb(220,20,60)" stroke="none" paint-order="stroke" d="M 443.56666564941406 63.5 A 4 4 0 1 1 443.56666364941424 63.49600000066666" fill-opacity="0.6" clip-path="url(#lRRRdrLJtZox)"/><text fill="rgb(68,68,68)" stroke="none" font-family="helvetica" font-size="8pt" font-style="normal" font-weight="normal" text-decoration="normal" x="454.06666564941406" y="86" text-anchor="start" dominant-baseline="central" transform="matrix(1, 0, 0, 1, 0.5, 0.5)" fill-opacity="1">Abnormal Signals</text><path fill="rgb(75,0,130)" stroke="none" paint-order="stroke" d="M 443.56666564941406 86.5 A 4 4 0 1 1 443.56666364941424 86.49600000066667" fill-opacity="0.6" clip-path="url(#lRRRdrLJtZox)"/><path fill="rgb(255,0,255)" stroke="rgb(139,0,139)" paint-order="fill" d="M 45.5 28.339910744887106 L 570.5 28.339910744887106 L 570.5 256.3566988860365 L 45.5 256.3566988860365 L 45.5 28.339910744887106" fill-opacity="0.10196078431372549" clip-path="url(#dcHtycTVtcTi)" stroke-opacity="0.30196078431372547" stroke-linejoin="bevel" stroke-miterlimit="10" stroke-dasharray=""/><path fill="none" stroke="none"/><text fill="rgb(68,68,68)" stroke="none" font-family="helvetica" font-size="12pt" font-style="normal" font-weight="bold" text-decoration="normal" x="0" y="0" text-anchor="middle" dominant-baseline="text-after-edge" transform="matrix(1, 0, 0, 1, 308, 28.5)" fill-opacity="1">AutoEncoder: Threshold Range Exploration</text></svg>